<?xml version="1.0" encoding="utf-8"?>
<!-- Generator: Adobe Illustrator 16.0.0, SVG Export Plug-In . SVG Version: 6.00 Build 0)  -->
<!DOCTYPE svg PUBLIC "-//W3C//DTD SVG 1.0//EN" "http://www.w3.org/TR/2001/REC-SVG-20010904/DTD/svg10.dtd">
<svg version="1.0" id="Layer_1" xmlns="http://www.w3.org/2000/svg" xmlns:xlink="http://www.w3.org/1999/xlink" x="0px" y="0px"
	 width="1000px" height="500px" viewBox="0 0 1000 500" enable-background="new 0 0 1000 500" xml:space="preserve">
<g>
	
		<radialGradient id="SVGID_1_" cx="582.0293" cy="279.1465" r="902.7889" fx="336.0417" fy="183.5465" gradientTransform="matrix(2 0 0 1 -479.3027 0)" gradientUnits="userSpaceOnUse">
		<stop  offset="0" style="stop-color:#F47E20"/>
		<stop  offset="0" style="stop-color:#F47E20"/>
		<stop  offset="0.3679" style="stop-color:#F58830"/>
		<stop  offset="0.9692" style="stop-color:#FFFFFF"/>
	</radialGradient>
	<rect x="0" fill="url(#SVGID_1_)" width="1000" height="500"/>
	<g>
		<g>
			<path fill-rule="evenodd" clip-rule="evenodd" d="M384.794,211.899l-0.028-0.781l-0.036-0.772l-0.046-0.772l-0.054-0.763
				l-0.072-0.763l-0.073-0.754l-0.091-0.745l-0.107-0.745l-0.1-0.736l-0.128-0.736l-0.127-0.727l-0.145-0.727l-0.155-0.718
				l-0.163-0.708l-0.173-0.717l-0.183-0.7l-0.19-0.7l-0.209-0.69l-0.219-0.691l-0.226-0.681l-0.237-0.682l-0.245-0.672l-0.254-0.672
				l-0.264-0.636l-0.263-0.627l-0.283-0.626l-0.29-0.609l-0.29-0.617l-0.309-0.6l-0.327-0.59l-0.328-0.591l-0.335-0.59l-0.355-0.572
				l-0.363-0.563l-0.363-0.563l-0.39-0.555l-0.383-0.544l-0.408-0.536l-0.411-0.536l-0.418-0.527l-0.435-0.518l-0.445-0.518
				l-0.453-0.5l-0.464-0.5l-0.472-0.491l-0.483-0.481l-0.5-0.482l-0.499-0.472l-0.518-0.463l-0.509-0.436l-0.509-0.436l-0.526-0.418
				l-0.537-0.417l-0.544-0.409l-0.564-0.409l-0.563-0.391l-0.572-0.391l-0.583-0.381l-0.598-0.373l-0.609-0.363l-0.609-0.363
				l-0.625-0.345l-0.637-0.346l-0.645-0.336l-0.655-0.336l-0.663-0.318l-0.672-0.317l-0.689-0.309l-0.69-0.3l-0.709-0.3
				l-0.717-0.281l-0.718-0.282l-0.736-0.272l-0.754-0.264l-0.745-0.263l-0.773-0.245l-0.718-0.227l-0.726-0.218l-0.746-0.209
				l-0.746-0.2l-0.753-0.191l-0.773-0.19l-0.771-0.182l-0.782-0.164l-0.799-0.164l-0.799-0.155l-0.81-0.154l-0.826-0.136
				l-0.827-0.127l-0.835-0.127l-0.854-0.119l-0.854-0.108l-0.872-0.091l-0.872-0.091l-0.881-0.091l-0.891-0.073l-0.909-0.063
				l-0.981-0.063l-0.854-0.054l-0.926-0.036l-0.936-0.037l-0.954-0.027l-0.954-0.018l-0.962-0.018h-0.981H283.7v70.052v71.631
				h26.354v-49.874h19.687h0.953l0.936-0.019l0.936-0.019l0.927-0.027l0.908-0.035l0.908-0.046l0.899-0.054l0.89-0.064l0.882-0.063
				l0.881-0.081l0.863-0.082l0.854-0.101l0.854-0.101l0.835-0.108l0.836-0.118l0.827-0.127l0.818-0.137l0.808-0.145l0.798-0.146
				l0.791-0.162l0.781-0.164l0.783-0.172l0.762-0.191l0.763-0.191l0.745-0.199l0.746-0.209l0.727-0.218l0.727-0.218l0.718-0.237
				l0.763-0.254l0.753-0.263l0.736-0.273l0.735-0.281l0.729-0.291l0.708-0.291l0.699-0.309l0.699-0.309l0.682-0.318l0.672-0.326
				l0.673-0.328l0.653-0.345l0.646-0.345l0.635-0.354l0.627-0.363l0.618-0.373l0.609-0.382l0.6-0.381l0.59-0.4l0.582-0.399
				l0.563-0.4l0.563-0.418l0.554-0.426l0.537-0.427l0.535-0.445l0.518-0.445l0.518-0.454l0.518-0.473l0.508-0.49l0.508-0.491
				l0.492-0.5l0.481-0.509l0.473-0.508l0.463-0.518l0.445-0.536l0.445-0.536l0.436-0.536l0.418-0.554l0.408-0.554l0.4-0.563
				l0.39-0.572l0.383-0.572l0.372-0.591l0.364-0.59l0.345-0.599l0.345-0.6l0.327-0.618l0.318-0.618l0.309-0.627l0.309-0.636
				l0.282-0.645l0.281-0.654l0.264-0.654l0.273-0.681l0.252-0.7l0.255-0.699l0.236-0.699l0.218-0.718l0.219-0.708l0.199-0.727
				l0.2-0.727l0.181-0.727l0.164-0.745l0.164-0.745l0.146-0.744l0.135-0.754l0.128-0.763l0.117-0.763l0.11-0.772l0.09-0.772
				l0.083-0.781l0.072-0.79l0.055-0.791l0.054-0.8l0.036-0.808l0.028-0.809l0.018-0.818v-0.817v-0.79L384.794,211.899z
				 M358.449,214.098l-0.019,0.618l-0.026,0.618l-0.027,0.608l-0.046,0.6l-0.054,0.59l-0.064,0.591l-0.074,0.581l-0.08,0.582
				l-0.093,0.563l-0.107,0.563l-0.11,0.554l-0.117,0.554l-0.137,0.545l-0.136,0.536l-0.155,0.536l-0.152,0.527l-0.173,0.518
				l-0.183,0.508l-0.182,0.49l-0.191,0.473l-0.2,0.463l-0.208,0.463l-0.218,0.445l-0.228,0.445l-0.236,0.445l-0.236,0.427
				l-0.263,0.436l-0.255,0.4l-0.273,0.409l-0.28,0.409l-0.292,0.391l-0.299,0.39l-0.31,0.373l-0.318,0.372l-0.327,0.363
				l-0.336,0.363l-0.345,0.346l-0.354,0.345l-0.354,0.327l-0.373,0.327l-0.382,0.318l-0.39,0.309l-0.399,0.3l-0.411,0.3
				l-0.408,0.281l-0.428,0.282l-0.436,0.272l-0.445,0.264l-0.454,0.254l-0.463,0.245l-0.464,0.236l-0.48,0.236l-0.49,0.227
				l-0.5,0.218l-0.508,0.209l-0.518,0.199l-0.518,0.191l-0.535,0.182l-0.518,0.172l-0.528,0.164l-0.536,0.154l-0.573,0.146
				l-0.518,0.127l-0.563,0.127l-0.563,0.127l-0.582,0.1l-0.582,0.109l-0.59,0.091l-0.608,0.09l-0.609,0.073L335,239.271
				l-0.626,0.063l-0.636,0.046l-0.646,0.045l-0.654,0.036l-0.654,0.028l-0.672,0.027l-0.681,0.009l-0.69,0.009h-8.313h-11.374
				v-50.856h19.687h0.699l0.681,0.018l0.681,0.019l0.673,0.027l0.663,0.036l0.645,0.045l0.645,0.046l0.627,0.064l0.627,0.063
				l0.626,0.073l0.6,0.082l0.59,0.091l0.59,0.1l0.583,0.1l0.572,0.118l0.563,0.118l0.554,0.128l0.545,0.136l0.527,0.145l0.527,0.154
				l0.526,0.164l0.527,0.172l0.528,0.182l0.518,0.191l0.498,0.191l0.5,0.209l0.491,0.208l0.481,0.227l0.464,0.227l0.463,0.236
				l0.454,0.246l0.437,0.246l0.436,0.263l0.418,0.264l0.417,0.272l0.4,0.282l0.399,0.291l0.381,0.299l0.381,0.3l0.364,0.318
				l0.353,0.318l0.364,0.345l0.364,0.345l0.345,0.363l0.335,0.373l0.328,0.372l0.318,0.381l0.308,0.391l0.3,0.4l0.29,0.399
				l0.273,0.418l0.273,0.418l0.255,0.427l0.254,0.437l0.237,0.436l0.235,0.454l0.219,0.454l0.209,0.463l0.2,0.481l0.19,0.473
				l0.183,0.49l0.173,0.491l0.152,0.5l0.155,0.509l0.136,0.508l0.137,0.527l0.117,0.518l0.11,0.536l0.107,0.536l0.093,0.536
				l0.08,0.545l0.074,0.563l0.064,0.554l0.054,0.563l0.046,0.573l0.027,0.582l0.026,0.581l0.019,0.591v0.59V214.098z"/>
			<path fill-rule="evenodd" clip-rule="evenodd" d="M505.155,237.155l-0.027-1l-0.035-0.99l-0.055-0.981l-0.056-0.972l-0.072-0.972
				l-0.081-0.963l-0.091-0.962l-0.101-0.954l-0.118-0.981l-0.127-0.908l-0.127-0.945l-0.146-0.927l-0.162-0.936l-0.164-0.917
				l-0.182-0.917l-0.182-0.918l-0.209-0.908l-0.209-0.899l-0.219-0.89l-0.234-0.891l-0.236-0.89l-0.254-0.881l-0.265-0.872
				l-0.281-0.872l-0.282-0.863l-0.3-0.863l-0.309-0.854l-0.318-0.844l-0.328-0.845l-0.353-0.863l-0.355-0.862l-0.373-0.845
				l-0.38-0.844l-0.39-0.827l-0.392-0.827l-0.409-0.817l-0.418-0.808l-0.427-0.799l-0.437-0.791l-0.445-0.781l-0.453-0.772
				l-0.464-0.772l-0.472-0.754l-0.483-0.753l-0.491-0.745l-0.499-0.736l-0.509-0.717l-0.525-0.718l-0.528-0.708l-0.536-0.709
				l-0.545-0.69l-0.563-0.681l-0.563-0.681l-0.582-0.663l-0.582-0.664l-0.59-0.653l-0.608-0.636l-0.609-0.645l-0.627-0.627
				l-0.608-0.59l-0.618-0.59l-0.626-0.591l-0.637-0.572l-0.636-0.563l-0.653-0.554l-0.656-0.554l-0.672-0.536l-0.672-0.527
				l-0.682-0.527l-0.689-0.517l-0.701-0.5l-0.708-0.5l-0.709-0.491l-0.726-0.481l-0.728-0.472l-0.736-0.464l-0.753-0.444
				l-0.754-0.446l-0.763-0.436l-0.763-0.436l-0.782-0.418l-0.781-0.409l-0.799-0.409l-0.8-0.391l-0.808-0.382l-0.818-0.381
				l-0.825-0.363l-0.836-0.364l-0.846-0.354l-0.846-0.336l-0.836-0.327l-0.835-0.309l-0.836-0.299l-0.843-0.291l-0.855-0.282
				l-0.862-0.272l-0.863-0.263l-0.863-0.255l-0.881-0.236l-0.882-0.227l-0.88-0.218l-0.9-0.218l-0.889-0.2l-0.908-0.191
				l-0.909-0.172l-0.918-0.173l-0.918-0.154l-0.936-0.155l-0.926-0.136l-0.936-0.127l-0.953-0.118l-0.946-0.109l-0.954-0.091
				l-0.963-0.09l-0.964-0.082l-0.98-0.064l-0.972-0.054l-0.99-0.046l-0.991-0.036l-0.991-0.027l-0.999-0.018h-1.008h-48.549v45.168
				v24.883v71.631h48.549l1.036-0.008l1.036-0.019l1.026-0.027l1.026-0.037l1.008-0.045l1.008-0.055l1.008-0.072l1.001-0.083
				l0.99-0.09l0.981-0.109l0.982-0.108l0.971-0.128l0.963-0.136l0.963-0.146l0.953-0.154l0.946-0.163l0.943-0.182l0.936-0.191
				l0.928-0.199l0.926-0.21l0.918-0.218l0.908-0.235l0.908-0.245l0.898-0.255l0.891-0.263l0.891-0.273l0.881-0.291l0.872-0.299
				l0.863-0.311l0.863-0.317l0.862-0.327l0.846-0.345l0.846-0.346l0.836-0.354l0.825-0.363l0.818-0.373l0.808-0.39l0.8-0.391
				l0.799-0.4l0.781-0.409l0.782-0.418l0.763-0.427l0.763-0.437l0.754-0.444l0.753-0.455l0.736-0.463l0.728-0.463l0.726-0.482
				l0.709-0.491l0.708-0.498l0.701-0.5l0.689-0.518l0.682-0.527l0.672-0.526l0.672-0.546l0.656-0.545l0.653-0.563l0.636-0.572
				l0.637-0.572l0.626-0.581l0.618-0.6l0.608-0.6l0.627-0.636l0.609-0.635l0.608-0.646l0.59-0.654l0.582-0.665l0.582-0.67
				l0.563-0.683l0.563-0.69l0.545-0.69l0.536-0.708l0.528-0.708l0.525-0.718l0.509-0.729l0.499-0.735l0.491-0.745l0.483-0.754
				l0.472-0.753l0.464-0.773l0.453-0.771l0.445-0.79l0.437-0.79l0.427-0.801l0.418-0.809l0.409-0.809l0.392-0.825l0.39-0.836
				l0.38-0.846l0.373-0.846l0.355-0.854l0.372-0.908l0.309-0.799l0.318-0.845l0.309-0.863l0.3-0.854l0.282-0.862l0.281-0.873
				l0.265-0.872l0.254-0.881l0.236-0.891l0.234-0.891l0.219-0.898l0.209-0.9l0.209-0.908l0.182-0.908l0.182-0.918l0.164-0.926
				l0.162-0.928l0.146-0.936l0.127-0.935l0.127-0.945l0.118-0.954l0.101-0.954l0.091-0.963l0.081-0.963l0.072-0.963l0.056-0.98
				l0.055-0.981l0.035-0.99l0.027-0.99l0.019-0.99v-0.999v-1.009L505.155,237.155z M478.13,240.043l-0.019,0.881l-0.028,0.881
				l-0.026,0.872l-0.038,0.863l-0.055,0.863l-0.063,0.845l-0.064,0.845l-0.073,0.835l-0.091,0.836l-0.09,0.817l-0.11,0.817
				l-0.117,0.809l-0.118,0.799l-0.128,0.791l-0.145,0.79l-0.154,0.772l-0.155,0.781l-0.172,0.763l-0.173,0.755l-0.19,0.754
				l-0.2,0.744l-0.2,0.736l-0.218,0.727l-0.218,0.727l-0.236,0.709l-0.247,0.709l-0.252,0.699l-0.255,0.69l-0.263,0.69l-0.273,0.672
				l-0.283,0.663l-0.29,0.664l-0.3,0.645l-0.299,0.645l-0.318,0.628l-0.327,0.626l-0.328,0.618l-0.335,0.608l-0.355,0.591
				l-0.354,0.591l-0.364,0.582l-0.373,0.58l-0.38,0.563l-0.383,0.556l-0.398,0.544l-0.4,0.546l-0.417,0.526l-0.418,0.527
				l-0.428,0.518l-0.436,0.51l-0.445,0.49l-0.473,0.518l-0.48,0.499l-0.482,0.481l-0.491,0.482l-0.499,0.472l-0.509,0.463
				l-0.525,0.445l-0.518,0.437l-0.537,0.437l-0.544,0.427l-0.545,0.409l-0.555,0.407l-0.563,0.391l-0.572,0.383l-0.582,0.373
				l-0.59,0.371l-0.599,0.354l-0.6,0.345l-0.608,0.337l-0.618,0.326l-0.637,0.318l-0.626,0.311l-0.646,0.299l-0.653,0.281
				l-0.654,0.282l-0.644,0.264l-0.646,0.245l-0.654,0.236l-0.655,0.228l-0.663,0.218l-0.673,0.207l-0.67,0.2l-0.691,0.191
				l-0.69,0.172l-0.69,0.173l-0.708,0.155l-0.7,0.145l-0.718,0.138l-0.717,0.136l-0.737,0.109l-0.726,0.107l-0.746,0.101
				l-0.744,0.082l-0.744,0.082l-0.763,0.063l-0.763,0.055l-0.773,0.046l-0.772,0.036L434.942,289l-0.782,0.019h-0.799h-22.094
				v-99.74h22.094h0.799l0.782,0.018l0.789,0.027l0.772,0.027l0.773,0.045l0.763,0.063l0.763,0.064l0.744,0.073l0.744,0.09
				l0.746,0.091l0.726,0.109l0.737,0.118l0.717,0.128l0.718,0.136l0.7,0.146l0.708,0.154l0.69,0.164l0.69,0.182l0.691,0.19
				l0.67,0.191l0.673,0.209l0.663,0.218l0.655,0.227l0.654,0.245l0.646,0.245l0.644,0.264l0.654,0.272l0.653,0.291l0.646,0.299
				l0.626,0.3l0.637,0.327l0.618,0.327l0.608,0.336l0.6,0.345l0.599,0.355l0.59,0.363l0.582,0.381l0.572,0.382l0.563,0.39l0.555,0.4
				l0.545,0.418l0.544,0.417l0.537,0.436l0.518,0.445l0.525,0.446l0.509,0.463l0.499,0.472l0.491,0.473l0.482,0.5l0.48,0.491
				l0.473,0.509l0.445,0.5l0.436,0.508l0.428,0.509l0.418,0.527l0.417,0.536l0.4,0.536l0.398,0.554l0.383,0.554l0.38,0.563
				l0.41,0.627l0.327,0.527l0.354,0.59l0.355,0.599l0.335,0.609l0.328,0.618l0.327,0.618l0.318,0.636l0.299,0.636l0.3,0.654
				l0.29,0.664l0.283,0.663l0.273,0.672l0.263,0.681l0.255,0.69l0.252,0.7l0.247,0.708l0.236,0.717l0.218,0.727l0.218,0.727
				l0.2,0.735l0.2,0.745l0.19,0.754l0.173,0.754l0.172,0.763l0.155,0.772l0.154,0.791l0.145,0.781l0.128,0.79l0.118,0.809
				l0.117,0.808l0.11,0.809l0.09,0.826l0.091,0.827l0.073,0.836l0.064,0.845l0.063,0.854l0.055,0.854l0.038,0.863l0.026,0.872
				l0.028,0.881l0.019,0.99v0.799V240.043z"/>
			<polygon fill-rule="evenodd" clip-rule="evenodd" points="698.341,168.302 698.113,168.302 697.887,168.32 697.66,168.347 
				697.433,168.383 697.205,168.438 696.987,168.501 696.77,168.575 696.552,168.656 696.352,168.747 696.142,168.856 
				695.942,168.965 695.751,169.092 695.561,169.22 695.388,169.365 695.216,169.52 695.043,169.674 694.888,169.847 
				694.735,170.019 614.108,269.587 613.608,270.187 613.107,270.785 612.6,271.367 612.073,271.938 611.547,272.512 
				611.001,273.066 610.455,273.62 609.893,274.155 609.329,274.691 608.748,275.209 608.166,275.727 607.575,276.236 
				606.977,276.728 606.367,277.208 605.75,277.69 605.132,278.154 604.497,278.607 603.86,279.053 603.216,279.489 
				602.562,279.907 601.908,280.325 601.244,280.724 600.572,281.124 599.899,281.497 599.208,281.87 598.518,282.232 
				597.828,282.578 597.129,282.913 596.394,283.259 595.712,283.559 594.995,283.859 594.276,284.149 593.549,284.431 
				592.823,284.703 592.087,284.957 591.342,285.202 590.606,285.439 589.86,285.658 589.107,285.867 588.361,286.065 
				587.599,286.247 586.846,286.42 586.082,286.584 585.328,286.729 584.556,286.865 583.793,286.993 583.02,287.102 
				582.249,287.202 581.476,287.283 580.704,287.366 579.932,287.42 579.151,287.474 578.378,287.511 577.598,287.538 
				576.824,287.546 576.044,287.546 575.263,287.538 574.49,287.511 573.718,287.466 572.936,287.42 572.164,287.355 
				571.393,287.283 570.611,287.193 569.849,287.093 569.075,286.982 568.312,286.856 567.54,286.72 566.777,286.565 
				566.014,286.411 565.26,286.229 564.506,286.047 563.752,285.849 563.008,285.64 562.262,285.42 561.517,285.186 560.78,284.939 
				560.045,284.685 559.319,284.412 558.591,284.132 557.874,283.84 557.156,283.531 556.448,283.224 555.739,282.896 
				555.041,282.56 554.35,282.205 553.659,281.842 552.978,281.47 552.296,281.097 551.624,280.696 550.97,280.297 550.307,279.879 
				549.652,279.453 549.017,279.024 548.372,278.572 547.744,278.116 547.126,277.653 546.509,277.181 546.355,277.053 
				546.355,277.053 545.9,276.69 546.355,277.053 546.073,276.79 545.601,276.3 545.128,275.81 544.646,275.281 544.201,274.784 
				543.747,274.266 543.311,273.729 542.875,273.185 542.448,272.629 542.022,272.076 541.613,271.503 541.204,270.922 
				540.804,270.331 540.423,269.731 540.033,269.124 539.66,268.506 539.296,267.878 538.942,267.242 538.587,266.597 
				538.241,265.943 537.906,265.28 537.578,264.599 537.261,263.917 536.942,263.227 536.643,262.518 536.344,261.811 
				536.052,261.093 535.771,260.356 535.499,259.621 535.254,258.93 535.018,258.221 534.791,257.521 534.572,256.805 
				534.363,256.078 534.163,255.351 533.973,254.615 533.79,253.87 533.617,253.115 533.455,252.361 533.3,251.599 533.164,250.827 
				533.026,250.046 532.9,249.255 532.781,248.465 532.682,247.656 532.583,246.856 532.491,246.039 532.41,245.212 
				532.347,244.386 532.282,243.541 532.229,242.696 532.191,241.842 532.156,240.988 532.138,240.116 532.118,239.244 
				532.118,238.354 532.118,237.454 532.138,236.545 532.156,235.665 532.191,234.774 532.229,233.893 532.282,233.03 
				532.347,232.167 532.419,231.313 532.491,230.459 532.583,229.623 532.682,228.788 532.781,227.97 532.9,227.152 
				533.026,226.344 533.164,225.544 533.3,224.754 533.455,223.963 533.617,223.191 533.79,222.419 533.973,221.656 
				534.163,220.902 534.363,220.157 534.572,219.421 534.791,218.685 535.018,217.968 535.254,217.25 535.508,216.505 
				535.771,215.778 536.044,215.061 536.317,214.352 536.607,213.653 536.907,212.962 537.207,212.281 537.524,211.608 
				537.844,210.945 538.169,210.291 538.507,209.646 538.852,209.01 539.204,208.383 539.56,207.766 539.933,207.148 
				540.305,206.548 540.696,205.967 541.086,205.386 541.494,204.813 541.903,204.241 542.321,203.687 542.748,203.141 
				543.176,202.606 543.621,202.079 544.074,201.561 544.529,201.052 544.992,200.562 545.465,200.071 545.945,199.589 
				546.436,199.117 546.926,198.663 547.427,198.208 547.936,197.772 548.452,197.336 548.971,196.918 549.498,196.51 
				550.034,196.11 550.579,195.719 551.134,195.329 551.688,194.956 552.251,194.593 552.823,194.248 553.396,193.903 
				553.986,193.566 554.576,193.239 555.176,192.931 555.784,192.622 556.394,192.331 557.02,192.04 557.638,191.768 
				558.273,191.504 558.919,191.25 559.555,191.004 560.209,190.777 560.863,190.55 561.517,190.341 562.181,190.141 
				562.853,189.951 563.533,189.769 564.206,189.605 564.896,189.442 565.587,189.306 566.277,189.161 566.985,189.042 
				567.687,188.934 568.403,188.824 569.112,188.733 569.838,188.651 570.565,188.579 571.302,188.524 572.038,188.47 
				572.773,188.434 573.526,188.406 574.281,188.397 575.035,188.388 575.726,188.388 576.406,188.397 577.088,188.416 
				577.742,188.442 578.405,188.47 579.041,188.506 579.668,188.552 580.286,188.597 580.896,188.651 581.493,188.715 
				582.084,188.779 582.667,188.86 583.238,188.942 583.793,189.024 584.347,189.124 584.884,189.224 585.481,189.342 
				586.072,189.469 586.663,189.597 587.226,189.733 587.79,189.869 588.344,190.005 588.88,190.151 589.415,190.305 
				589.933,190.459 590.443,190.614 590.941,190.777 591.433,190.941 591.904,191.104 592.378,191.277 592.904,191.486 
				593.431,191.694 593.949,191.913 594.439,192.122 594.939,192.349 595.413,192.567 595.885,192.794 596.339,193.021 
				596.784,193.257 597.22,193.494 597.647,193.73 598.055,193.975 598.5,194.239 598.928,194.502 599.354,194.756 599.764,195.011 
				600.163,195.256 600.555,195.501 600.935,195.747 601.308,195.982 601.671,196.209 602.025,196.446 602.779,196.937 
				603.18,197.2 603.58,197.446 603.96,197.682 604.343,197.909 604.724,198.127 605.087,198.336 605.441,198.535 605.795,198.726 
				606.06,198.862 606.313,198.981 606.577,199.09 606.831,199.189 607.095,199.271 607.341,199.344 607.595,199.417 
				607.849,199.471 608.094,199.507 608.349,199.535 608.594,199.553 608.839,199.562 609.121,199.562 609.402,199.544 
				609.665,199.525 609.92,199.499 610.175,199.462 610.41,199.417 610.647,199.362 610.873,199.308 611.091,199.244 
				611.302,199.162 611.501,199.081 611.691,198.999 611.873,198.899 612.046,198.79 612.21,198.681 612.455,198.499 
				612.683,198.318 612.909,198.118 613.128,197.918 613.336,197.718 613.525,197.509 613.719,197.3 613.898,197.082 
				614.063,196.855 614.227,196.619 623.048,184.373 622.438,183.792 621.82,183.21 621.194,182.647 620.558,182.083 
				619.914,181.529 619.269,180.984 618.604,180.448 617.932,179.921 617.262,179.403 616.57,178.895 615.87,178.386 
				615.162,177.895 614.444,177.405 613.726,176.923 612.99,176.451 612.246,175.987 611.491,175.533 610.729,175.088 
				609.956,174.643 609.175,174.216 608.394,173.789 607.595,173.38 606.785,172.972 605.968,172.572 605.141,172.172 
				604.315,171.791 603.47,171.418 602.616,171.045 601.862,170.737 601.099,170.428 600.336,170.137 599.554,169.855 
				598.783,169.583 597.992,169.311 597.191,169.065 596.394,168.82 595.585,168.583 594.776,168.356 593.949,168.147 
				593.123,167.938 592.287,167.748 591.441,167.557 590.596,167.384 589.743,167.221 588.88,167.066 588.008,166.921 
				587.136,166.794 586.255,166.667 585.364,166.549 584.466,166.449 583.565,166.349 582.657,166.267 581.739,166.194 
				580.813,166.131 579.877,166.067 578.951,166.031 578.005,165.995 577.052,165.967 576.099,165.949 575.136,165.949 
				574.162,165.949 573.2,165.967 572.238,165.995 571.283,166.031 570.329,166.076 569.384,166.14 568.449,166.203 
				567.514,166.285 566.586,166.367 565.66,166.467 564.741,166.576 563.833,166.703 562.925,166.83 562.026,166.966 
				561.126,167.121 560.236,167.284 559.354,167.457 558.474,167.639 557.602,167.83 556.729,168.039 555.866,168.248 
				555.003,168.475 554.149,168.71 553.304,168.947 552.46,169.21 551.624,169.474 550.797,169.755 549.972,170.037 
				549.153,170.337 548.335,170.646 547.517,170.964 546.719,171.291 545.864,171.654 545.02,172.026 544.192,172.408 
				543.356,172.79 542.54,173.189 541.722,173.599 540.922,174.016 540.123,174.443 539.342,174.879 538.561,175.324 
				537.788,175.778 537.025,176.242 536.262,176.724 535.517,177.205 534.772,177.696 534.045,178.204 533.318,178.713 
				532.602,179.231 531.892,179.767 531.192,180.312 530.502,180.857 529.767,181.457 529.131,181.983 528.468,182.565 
				527.805,183.155 527.149,183.746 526.505,184.354 525.868,184.972 525.243,185.599 524.625,186.235 524.007,186.88 
				523.406,187.534 522.808,188.188 522.226,188.86 521.654,189.533 521.09,190.223 520.527,190.914 519.982,191.613 
				519.438,192.322 518.91,193.04 518.392,193.766 517.884,194.502 517.375,195.247 516.885,195.992 516.402,196.755 
				515.93,197.518 515.467,198.3 515.013,199.081 514.559,199.871 514.123,200.67 513.695,201.479 513.287,202.297 512.869,203.114 
				512.479,203.95 512.088,204.795 511.696,205.64 511.333,206.494 510.971,207.356 510.615,208.229 510.27,209.11 509.943,209.973 
				509.635,210.836 509.326,211.708 509.035,212.581 508.754,213.471 508.49,214.352 508.227,215.242 507.98,216.142 
				507.735,217.05 507.509,217.958 507.291,218.876 507.091,219.793 506.893,220.72 506.709,221.656 506.537,222.592 
				506.364,223.537 506.209,224.481 506.074,225.435 505.938,226.398 505.818,227.361 505.701,228.378 505.602,229.314 
				505.511,230.296 505.438,231.286 505.365,232.276 505.311,233.275 505.266,234.283 505.221,235.292 505.201,236.31 
				505.184,237.336 505.174,238.363 505.184,239.407 505.201,240.452 505.221,241.488 505.266,242.523 505.311,243.55 
				505.365,244.577 505.438,245.585 505.511,246.593 505.602,247.602 505.701,248.601 505.81,249.6 505.938,250.581 
				506.064,251.572 506.209,252.553 506.355,253.525 506.527,254.488 506.701,255.451 506.882,256.414 507.082,257.359 
				507.291,258.313 507.5,259.239 507.728,260.175 507.963,261.111 508.208,262.027 508.473,262.946 508.736,263.863 
				509.016,264.771 509.308,265.671 509.607,266.57 509.925,267.46 510.244,268.342 510.57,269.224 510.916,270.086 
				511.261,270.949 511.623,271.794 511.988,272.64 512.369,273.476 512.751,274.301 513.15,275.119 513.551,275.927 
				513.968,276.728 514.386,277.526 514.821,278.308 515.267,279.08 515.723,279.853 516.175,280.615 516.648,281.359 
				517.129,282.104 517.611,282.841 518.111,283.576 518.619,284.294 519.138,285.003 519.655,285.703 520.191,286.402 
				520.736,287.083 521.291,287.756 521.854,288.428 522.425,289.091 523.008,289.745 523.599,290.391 524.169,290.999 
				524.76,291.606 525.36,292.207 525.96,292.798 526.568,293.371 527.187,293.942 527.813,294.506 528.44,295.06 529.076,295.605 
				529.767,296.177 530.385,296.669 531.048,297.186 531.72,297.703 532.429,298.222 533.082,298.693 533.772,299.176 
				534.473,299.647 535.19,300.119 535.899,300.574 536.625,301.028 537.36,301.465 538.097,301.891 538.842,302.318 
				539.595,302.727 540.368,303.137 541.131,303.527 541.912,303.917 542.694,304.299 543.493,304.663 544.293,305.025 
				545.101,305.38 545.892,305.706 546.691,306.034 547.49,306.343 548.299,306.643 549.117,306.934 549.934,307.205 
				550.761,307.478 551.597,307.733 552.433,307.979 553.276,308.224 554.131,308.441 554.994,308.659 555.857,308.869 
				556.729,309.06 557.602,309.24 558.483,309.413 559.373,309.586 560.272,309.732 561.172,309.878 562.08,310.013 
				562.997,310.132 563.916,310.24 564.842,310.341 565.777,310.431 566.777,310.513 567.659,310.575 568.612,310.641 
				569.575,310.686 570.611,310.722 571.51,310.748 572.483,310.758 572.936,310.767 573.464,310.767 574.473,310.758 
				575.125,310.748 575.562,310.758 576.498,310.767 577.434,310.758 578.368,310.74 579.313,310.713 580.25,310.668 
				581.186,310.613 582.121,310.54 583.047,310.458 583.983,310.368 584.919,310.268 585.846,310.15 586.772,310.022 
				587.709,309.878 588.626,309.732 589.553,309.567 590.47,309.387 591.387,309.195 592.305,308.995 593.213,308.777 
				594.132,308.559 595.03,308.313 595.938,308.068 596.839,307.806 597.737,307.533 598.628,307.251 599.519,306.952 
				600.399,306.652 601.29,306.334 602.161,305.998 603.034,305.661 603.906,305.308 604.769,304.936 605.624,304.563 
				606.478,304.173 607.33,303.781 608.176,303.372 609.012,302.945 609.848,302.519 610.666,302.073 611.491,301.619 
				612.3,301.155 613.107,300.684 613.917,300.202 614.717,299.701 615.497,299.193 616.288,298.686 617.062,298.157 
				617.832,297.622 618.595,297.076 619.341,296.522 620.095,295.95 620.831,295.378 621.566,294.787 622.293,294.196 
				623.012,293.589 623.72,292.979 624.42,292.353 625.109,291.726 625.791,291.081 626.472,290.436 627.135,289.772 
				627.798,289.109 628.443,288.428 629.089,287.746 629.715,287.056 630.343,286.357 630.95,285.64 631.56,284.93 632.15,284.204 
				693.09,208.956 693.09,256.486 669.424,256.486 654.354,275.102 693.09,275.102 693.09,309.985 716.312,309.985 716.312,168.302 
							"/>
		</g>
		<rect x="282.748" y="318.567" fill="none" width="434.517" height="43.407"/>
		<text transform="matrix(1 0 0 1 282.7476 338.8965)"><tspan x="0" y="0" fill="#231F20" font-family="'Lato-Light'" font-size="27.908">P.Dreier Computational Archite</tspan><tspan x="391.75" y="0" fill="#231F20" font-family="'Lato-Light'" font-size="27.908">-</tspan></text>
	</g>
</g>
</svg>
